<svg width="48" height="48" viewBox="0 0 48 48" fill="none" xmlns="http://www.w3.org/2000/svg">
<mask id="mask0_1514_2564" style="mask-type:luminance" maskUnits="userSpaceOnUse" x="0" y="0" width="48" height="48">
<path d="M24 46C36.1503 46 46 36.1503 46 24C46 11.8497 36.1503 2 24 2C11.8497 2 2 11.8497 2 24C2 36.1503 11.8497 46 24 46Z" stroke="black" stroke-width="4"/>
</mask>
<g mask="url(#mask0_1514_2564)">
<path d="M24 46C36.1503 46 46 36.1503 46 24C46 11.8497 36.1503 2 24 2C11.8497 2 2 11.8497 2 24C2 36.1503 11.8497 46 24 46Z" stroke="black" stroke-width="4"/>
</g>
<path fill-rule="evenodd" clip-rule="evenodd" d="M27.4426 28.5268L17.4283 27.5837L17.2291 29.7602L27.2577 30.7032L27.4426 28.5268ZM27.2008 31.3272L17.1438 31.3418V33.5322L27.2008 33.5181V31.3272ZM29.3771 23.1586L20.7142 17.9352L19.619 19.8213L28.2817 25.0446L29.3771 23.1586ZM28.1111 25.654L18.3956 22.9988L17.8407 25.1171L27.5564 27.7725L28.1111 25.654ZM28.9216 35.2735H15.7212V26.3071H14V36.9854H14.0143L14.5123 37H30.6146V36.9854L30.6289 36.4775V26.3071H28.9216V35.2735ZM32.279 11L30.1593 11.3772L31.8808 21.4899L34 21.1128L32.279 11ZM24.057 14.3805L29.7327 22.8539L31.4968 21.6206L25.8351 13.1329L24.057 14.3805Z" fill="white"/>
</svg>
